<svg version="1.1" xmlns="http://www.w3.org/2000/svg" x="0" y="0" viewBox="0 0 118 42"><title>Impact Podcast with John Shegerian</title><g id="impact"><path fill="#ffffff" d="M17.08 25.91h-6.39L13.45 0h7.82l2.78 13.84L29.78 0h7.82l-2.76 25.91H28.5l1.76-16.47-4.44 10.86h-4.91L18.82 9.52l-1.74 16.39zM40.15 0H52.3c4.01 0 5.84 1.67 5.48 5l-.79 7.43c-.36 3.34-2.54 5-6.55 5h-4.99l-.9 8.48h-7.16L40.15 0zm9.78 11.5l.59-5.57c.06-.59-.25-.89-.93-.89h-2.82l-.78 7.35h2.82c.68 0 1.06-.3 1.12-.89zM70.25 25.91l-.41-3.87h-6.3l-1.27 3.87h-7.04L64.75 0h8.72l3.99 25.91h-7.21zm-5.07-8.88h4.09l-1.01-9.32-3.08 9.32zM98.15 9.69h-7.16l.44-4.16c.06-.59-.25-.89-.93-.89h-1.43c-.68 0-1.05.3-1.12.89l-1.58 14.85c-.06.59.25.89.93.89h1.43c.68 0 1.05-.3 1.12-.89l.43-4h7.16l-.48 4.52c-.36 3.34-2.54 5-6.55 5h-5.77c-4.01 0-5.84-1.67-5.48-5L80.85 5c.36-3.34 2.54-5 6.55-5h5.77c4.01 0 5.84 1.67 5.48 5l-.5 4.69zM118 0l-.54 5.04h-5.08l-2.22 20.87H103l2.22-20.87h-5.03l.54-5.04H118zM9.03 17.84L10.93 0H3.77L2.03 16.26l-.26 2.51-.76 7.14h7.16l.59-5.56z"/></g><g id="subtext"><path class="sub-text" d="M71.17 31.52c-.06 0-.17.02-.25.13l-.26.31c-.07.1-.15.19-.22.27-.16.2-.3.36-.42.47-.04-.18-.07-.31-.1-.41-.05-.1-.09-.18-.15-.26-.05-.06-.1-.11-.15-.15-.07-.05-.14-.1-.23-.12-.04-.01-.08-.02-.11-.03h-.13a.75.75 0 00-.24.04c-.08.04-.17.09-.27.16-.03.02-.06.05-.1.08.1-.3.17-.52.22-.65 0-.01.02-.11.02-.12a.432.432 0 00-.16-.44c-.08-.08-.17-.12-.34-.12h-.02c-.13.02-.24.08-.31.16-.05.04-.1.11-.16.19l-.12.18c-.04.05-.07.1-.13.17l-.1.18c-.07.1-.06.2-.03.3l-.05.05c-.1.08-.22.18-.33.28-.23.19-.45.37-.66.52-.26.2-.49.36-.67.49-.14.09-.26.16-.34.21-.11.06-.18.09-.23.11-.02-.04-.06-.1-.1-.21l-.07-.19a1.116 1.116 0 00-.25-.45.854.854 0 00-.14-.11.636.636 0 00-.18-.06c-.02 0-.13-.02-.14-.02-.07 0-.14.01-.22.04-.06.02-.11.05-.18.09.03-.07.05-.15.08-.22.05-.14.11-.3.18-.46.01-.01.02-.01.03-.02l.3-.26c.18-.16.38-.35.58-.57.36-.37.71-.78 1.04-1.22.36-.51.64-.98.82-1.42.12-.31.2-.6.23-.86.02-.18.02-.35 0-.51-.03-.19-.1-.37-.21-.55-.04-.05-.08-.1-.18-.15a.596.596 0 00-.29-.06h-.05l-.2.04c-.07.04-.15.09-.19.13-.1.06-.2.15-.28.25-.12.13-.24.29-.36.48-.17.26-.36.57-.57.94-.3.57-.61 1.21-.94 1.93-.27.6-.51 1.18-.72 1.74-.01 0-.02.01-.03.01-.11.02-.23.03-.35.03h-.16c-.06-.01-.13-.03-.19-.04 0-.07-.01-.14-.01-.21a.635.635 0 00-.05-.2c0-.01-.01-.03-.01-.04a.477.477 0 00.27-.43v-.14c0-.02-.03-.16-.04-.18a.94.94 0 00-.12-.22c-.07-.1-.17-.18-.37-.24-.02-.01-.15-.01-.17-.01-.05 0-.11.01-.19.02-.08.02-.16.05-.24.09-.13.06-.25.13-.38.24-.09.08-.18.17-.27.27-.25.28-.44.61-.6.96-.06.03-.12.05-.18.08-.21.09-.48.18-.79.29l-.75.24c.46-1.02.88-2.06 1.23-3.09.4-1.18.7-2.32.9-3.38.11-.63.18-1.22.21-1.75.01-.27.02-.42.02-.45v-.23c0-.11-.01-.2-.02-.26-.02-.19-.07-.37-.13-.54-.09-.22-.23-.39-.4-.51-.17-.14-.36-.23-.59-.28-.1-.02-.21-.03-.33-.03-.07 0-.15 0-.23.01-.28.02-.61.09-.96.22-.26.09-.55.21-.84.36-.25.13-.51.27-.8.43-.95.57-1.9 1.27-2.84 2.06-.91.76-1.76 1.56-2.54 2.39-.95 1.04-1.68 1.99-2.16 2.81-.01.02-.02.04-.02.07-.1.2-.06.41.13.56.09.07.2.11.34.11h.01c.13-.01.25-.07.33-.17.1-.12.21-.23.33-.33.12-.1.24-.2.36-.28.12-.08.25-.15.4-.22.15-.07.29-.13.42-.16.01 0 .02-.01.03-.01.03-.01.05-.01.07-.03.09-.06.16-.15.21-.25.05-.12.04-.25-.03-.36a.442.442 0 00-.28-.22.675.675 0 00-.14-.02c-.07 0-.14.02-.21.05h-.01c.09-.12.19-.24.28-.36.16-.19.34-.4.54-.63l.58-.63c.17-.19.37-.39.6-.6.39-.38.81-.75 1.25-1.13.44-.36.89-.71 1.35-1.04.49-.35.97-.65 1.42-.91.56-.3 1.07-.53 1.51-.67.27-.09.52-.14.72-.14h.11c.17 0 .3.04.39.11.04.04.08.09.1.17.03.08.06.18.07.35v.3c0 .03-.01.16-.03.4-.04.54-.11 1.09-.21 1.64-.19 1.01-.49 2.09-.88 3.23-.35 1.01-.78 2.07-1.26 3.13-.12.23-.23.45-.33.68-1.23.38-2.17.68-2.88.94-1.29.46-2.38.95-3.22 1.45-.56.32-1.05.67-1.47 1.03-.51.45-.9.94-1.17 1.44-.16.29-.27.59-.35.93 0 .03-.02.09-.05.23 0 .03-.01.1-.03.21-.01.08-.02.16-.02.26v.25c.03.34.11.66.22.95.14.34.33.63.58.86.13.13.28.24.43.32.14.1.31.18.5.23.12.04.28.08.57.13.03.01.07.01.13.01h.04l.15.02h.15c.19-.02.38-.06.48-.12.05 0 .07 0 .33-.12.06-.03.12-.07.21-.1.25-.14.51-.33.77-.54.22-.18.45-.38.68-.61.21-.21.41-.43.6-.65.34-.38.71-.84 1.11-1.37.65-.89 1.29-1.87 1.89-2.92.46-.78.89-1.58 1.27-2.38.64-.2 1.1-.35 1.37-.44.18-.06.34-.12.49-.18-.02.06-.03.12-.02.14-.02.14-.03.28-.02.43.02.15.05.29.1.43.09.19.21.34.35.42.03.02.06.05.17.09.05.02.1.03.17.05.05.01.1.01.15.01.05 0 .1 0 .14-.01.16-.03.32-.09.47-.19.11-.07.21-.17.29-.28.15-.17.28-.38.38-.61.06-.12.11-.23.15-.36.01-.05.02-.11.04-.18.05.01.1.02.15.02.1.01.19.02.28.02.03 0 .06-.01.08-.01-.07.2-.14.39-.19.56-.06.2-.11.38-.15.53-.03.12-.05.22-.06.3-.01.07-.02.14-.02.2v.13c.01.06.02.12.04.19a.504.504 0 00.45.31h.06c.13-.02.25-.08.33-.18.02-.03.04-.06.05-.1.01-.05.03-.1.06-.16a.38.38 0 01.09-.13c.08-.09.17-.2.27-.31.1-.1.2-.19.33-.29l.04-.04.05.13a1.703 1.703 0 00.29.49c.12.13.25.21.39.25.07.02.14.04.25.04h.04l.19-.04c.13-.04.3-.12.5-.24l.38-.25c.23-.17.46-.36.69-.57.11-.09.19-.17.28-.26l-.12.39-.09.26c-.01.02-.02.09-.02.11-.05.17-.01.33.1.44.09.1.2.16.34.17h.03c.12 0 .23-.04.32-.11.02-.02.04-.05.06-.08.05-.06.12-.17.23-.32.07-.12.14-.22.2-.29.15-.21.31-.4.45-.56l.24-.24c.05-.05.1-.09.15-.12.02.06.03.13.06.21.05.19.09.33.14.46.04.06.08.12.11.14.08.09.17.15.22.16.06.04.14.06.22.06.06 0 .12-.01.17-.02a.67.67 0 00.18-.07c.07-.04.15-.09.25-.17l.16-.16c.13-.16.29-.38.47-.64.12-.18.25-.39.38-.63.1-.14.08-.3-.05-.43-.05-.11-.13-.14-.21-.14zm-6.33-1.27c.27-.6.55-1.15.81-1.63.19-.35.37-.65.52-.88.03-.04.06-.09.09-.13-.01.16-.05.34-.12.54-.14.37-.37.8-.69 1.27-.18.28-.38.56-.61.83zm-3.97 2.82c0-.08.01-.15.03-.23.01-.06.03-.15.06-.26.02-.08.04-.16.07-.24.09-.24.2-.46.34-.66.02.06.04.12.07.18.05.11.11.21.19.3 0 .02-.01.04-.01.06-.02.1-.04.18-.06.24-.03.07-.06.15-.11.24-.1.18-.19.32-.26.41-.06.05-.13.1-.24.22-.01-.01-.04-.08-.05-.09a.508.508 0 01-.03-.17zm-10.43 8.18l-.11-.22c-.14-.02-.25-.04-.32-.06-.12-.05-.24-.09-.32-.13-.1-.06-.19-.13-.27-.2-.32-.29-.52-.71-.57-1.22v-.35c.02-.13.03-.21.03-.21.02-.12.03-.2.03-.2.06-.23.14-.47.25-.69.21-.42.54-.84.96-1.23.35-.32.8-.64 1.33-.97.81-.48 1.85-.96 3.08-1.43.59-.21 1.32-.46 2.2-.75-.26.51-.53.99-.79 1.45a33.34 33.34 0 01-1.83 2.85c-.37.51-.72.95-1.04 1.32-.17.2-.36.4-.57.61-.21.22-.4.41-.59.55-.21.18-.42.33-.63.45-.05.03-.1.06-.06.07a.47.47 0 00-.16.04l.07.2-.16-.15c-.09.03-.19.05-.36.06h-.16l-.01.21zM114.62 31.61a.352.352 0 00-.23-.09c-.06 0-.17.02-.25.13l-.26.31c-.07.1-.15.19-.22.27-.16.2-.3.36-.42.47-.04-.18-.07-.31-.1-.41-.05-.1-.09-.18-.15-.26-.05-.06-.1-.11-.15-.15-.07-.05-.14-.1-.23-.12-.04-.01-.08-.02-.11-.03h-.13a.75.75 0 00-.24.04c-.08.04-.17.09-.27.16-.03.02-.06.05-.1.08.1-.3.17-.52.22-.65 0-.01.02-.11.02-.12a.432.432 0 00-.16-.44c-.08-.08-.17-.12-.34-.12h-.02c-.13.02-.24.08-.31.16-.05.04-.1.11-.16.19l-.12.18c-.04.05-.07.1-.13.17l-.1.18c-.02.03-.01.05-.02.08 0 .01-.01.01-.01.01-.23.3-.43.55-.6.72-.12.12-.23.21-.34.29-.05.04-.11.08-.09.09-.03.01-.06.02-.11.03 0-.04-.01-.08-.01-.13 0-.06 0-.13.01-.2.01-.06.02-.12.04-.2.11-.01.21-.08.29-.19.03-.06.07-.12.09-.18.03-.06.07-.12.1-.2.05-.12.1-.23.14-.34.05-.13.09-.26.13-.37.02-.08.04-.16.05-.23.01-.11.01-.2 0-.24 0-.08-.01-.16-.05-.25a.573.573 0 00-.25-.26l-.14-.04a.675.675 0 00-.14-.02h-.16c-.15.02-.31.08-.5.17-.21.11-.43.28-.66.48-.38.34-.72.73-1.01 1.17-.09.14-.16.27-.23.39l-.53.46c-.21.17-.4.32-.57.45-.1.07-.18.13-.26.18.03-.1.08-.22.14-.35.08-.19.18-.4.3-.63.05-.09.11-.2.2-.38.01-.01.15-.27.15-.27a.46.46 0 00.01-.44c.15-.03.27-.13.34-.29.04-.1.11-.22.18-.32.08-.11.11-.24.09-.38a.51.51 0 00-.22-.32.484.484 0 00-.26-.07l-.1.01a.45.45 0 00-.31.2c-.11.17-.21.34-.29.51-.05.13-.05.26 0 .37 0 .01.01.02.01.03a.57.57 0 00-.24.13c-.09.1-.18.21-.27.34-.01.02-.04.06-.05.09l-.11.11c-.11.13-.14.29-.07.42 0 .01.01.02.01.03-.05.12-.09.21-.13.32l-.06.09c-.13.22-.29.45-.48.68-.35.46-.74.86-1.13 1.18-.23.18-.45.32-.63.41.03-.06.07-.13.12-.22.13-.22.27-.46.44-.72l.31-.48c.06-.09.11-.17.14-.23.1-.17.18-.3.22-.39.06-.1.1-.18.12-.25.02-.06.04-.11.06-.16 0-.01.03-.09.03-.09.02-.08.02-.15 0-.24l-.05-.17a.75.75 0 00-.17-.19.37.37 0 00-.21-.08c.03-.02.06-.05.08-.07.19-.15.34-.28.47-.42.14-.15.27-.31.42-.53.1-.21.16-.4.17-.59 0-.13-.02-.26-.08-.4-.03-.05-.06-.1-.13-.18a.896.896 0 00-.19-.15.827.827 0 00-.41-.12c-.1 0-.21.01-.36.04-.1.03-.19.07-.3.13l-.12.08c-.05.04-.09.07-.08.07a2.6 2.6 0 00-.71.73c-.05.08-.09.16-.14.23v-.1a.712.712 0 00-.31-.51.76.76 0 00-.43-.14c-.05 0-.1 0-.17.02-.1.02-.17.05-.17.06a.66.66 0 00-.25.11l-.15.12c-.02.02-.05.05-.1.09-.06.06-.13.13-.21.22-.11.13-.22.27-.33.42-.23.31-.43.63-.58.94-.03.07-.05.13-.08.19-.1.05-.21.1-.34.17-.22.13-.44.26-.64.4-.23.14-.46.29-.69.45.07-.25.11-.43.13-.54.03-.12.06-.25.08-.38l.05-.32v-.15c0-.06.01-.09-.04-.13-.02-.04-.05-.08-.08-.12-.02-.02-.11-.08-.13-.09-.03-.01-.06-.02-.16-.05h-.01a.56.56 0 00-.51-.56h-.12c-.02 0-.08.01-.11.02a.97.97 0 00-.31.11c-.13.07-.26.16-.39.27-.09.08-.19.18-.3.29-.15.17-.29.37-.42.57-.01.01-.02.01-.03.02-.26.24-.52.45-.76.65-.3.23-.57.41-.8.55-.15.08-.28.15-.4.19-.07.02-.12.04-.22.05-.01 0-.02-.01-.03-.01-.02-.01-.05-.03-.07-.04a.935.935 0 01-.06-.19c.01-.05.01-.09.02-.16.02-.11.06-.24.12-.37l.01-.01c.21-.04.43-.12.64-.24.19-.1.37-.24.54-.39.15-.14.3-.29.45-.47.06-.08.12-.17.19-.27l.09-.14c.01-.01.08-.18.08-.18.01-.02.02-.04.02-.06.05-.13.07-.27.05-.41a.693.693 0 00-.31-.51.76.76 0 00-.43-.14c-.05 0-.1 0-.17.02-.1.02-.17.05-.17.06-.07.01-.15.05-.25.11l-.15.12c-.02.02-.05.05-.1.09-.06.06-.13.13-.21.22-.11.13-.22.27-.33.42-.23.31-.43.63-.58.94-.12.24-.21.47-.27.68-.01 0-.01.01-.01.01-.23.19-.45.37-.66.52-.26.2-.49.36-.67.49-.14.09-.26.16-.34.21-.11.06-.18.09-.23.11-.02-.04-.06-.1-.1-.21l-.07-.19c-.03-.11-.07-.2-.11-.27a.935.935 0 00-.14-.19.854.854 0 00-.14-.11.636.636 0 00-.18-.06c-.02 0-.13-.02-.14-.02a.57.57 0 00-.22.04c-.05.02-.11.05-.18.09.03-.07.05-.15.08-.22.05-.14.11-.3.18-.46.01-.01.02-.01.03-.02l.3-.26c.18-.16.38-.35.58-.57.36-.37.71-.78 1.04-1.22.36-.51.64-.98.82-1.42.12-.31.2-.59.24-.86.02-.18.02-.35 0-.51-.03-.19-.1-.37-.21-.55-.04-.05-.08-.1-.18-.16a.624.624 0 00-.29-.06H92l-.21.05c-.07.04-.15.09-.19.13-.1.06-.2.15-.28.26-.12.12-.24.29-.36.48-.17.26-.36.57-.57.94-.3.57-.61 1.21-.94 1.93-.26.57-.48 1.12-.69 1.65a.3.3 0 01-.1.04c-.12.06-.27.12-.44.18-.24.09-.55.2-.94.34l-.52.19c-.03-.11-.07-.22-.12-.32-.08-.19-.18-.36-.29-.52-.12-.16-.25-.3-.39-.43-.23-.23-.53-.45-.88-.67-.51-.31-1.15-.6-1.91-.87-.45-.16-1.1-.35-1.94-.59-.92-.27-1.55-.47-1.87-.58-.35-.12-.64-.24-.86-.35-.13-.07-.25-.14-.33-.2-.09-.08-.16-.16-.21-.23 0-.02-.01-.05-.02-.08v-.12a.92.92 0 01.1-.31c.1-.2.26-.43.49-.68.35-.39.83-.8 1.42-1.23.49-.35 1.04-.7 1.64-1.06.56-.32 1.13-.62 1.72-.91 1.24-.62 2.46-1.12 3.61-1.49.31-.1.62-.18.94-.26.31-.08.62-.15.91-.18.18-.02.33-.03.44-.04.16 0 .29.01.4.04.15.03.19.06.2.08 0 .02.01.05 0 .12-.01.1-.04.22-.11.38-.04.11-.1.25-.19.43-.04.1-.11.24-.2.43-.1.21-.18.37-.21.46-.18.37-.32.7-.4.98-.13.41-.17.8-.14 1.14 0 .03.01.07.03.1.02.07.06.14.11.2.06.07.13.11.21.14.05.01.1.02.15.02.02 0 .09-.01.11-.01a.5.5 0 00.31-.22c.08-.12.1-.25.07-.36-.05-.22-.04-.48.05-.78.06-.24.16-.53.3-.87.02-.05.16-.34.43-.88.08-.19.14-.35.19-.47.09-.22.14-.41.16-.56.03-.13.03-.26 0-.38a.841.841 0 00-.19-.43.942.942 0 00-.35-.27c-.1-.04-.21-.08-.34-.12-.18-.04-.39-.06-.62-.06-.16 0-.32.01-.51.03-.59.06-1.28.2-2.04.43-.59.18-1.24.42-1.93.69-.6.25-1.21.53-1.83.84-.62.29-1.22.62-1.79.96-.62.36-1.2.73-1.72 1.09-.65.47-1.18.93-1.59 1.36-.29.33-.5.64-.64.92-.11.22-.18.44-.2.64-.01.13-.01.25.01.34 0 .07.02.15.05.22.04.14.06.2.07.2.1.19.25.37.46.54.14.1.3.21.49.31.27.14.6.28.99.42.34.12.98.32 1.94.6.82.23 1.44.43 1.87.58.71.25 1.29.51 1.72.77.29.18.53.35.7.52.09.09.19.2.28.31.07.1.13.21.19.33.04.08.07.17.09.26l-.4.15c-1.48.52-2.74 1-3.74 1.41-1.47.58-2.72 1.12-3.69 1.6-.67.34-1.27.67-1.76.99-.32.2-.61.39-.85.58-.32.25-.59.49-.8.71-.29.31-.51.63-.64.97l-.06.22c0 .01-.02.11-.02.12-.01.13 0 .26.04.4.04.13.1.26.18.38.07.1.17.18.28.26.16.11.35.2.58.28.17.05.36.09.57.11.17.02.35.03.54.03.18 0 .38-.01.58-.03l.27-.03.11-.03.14-.02c.08-.02.16-.04.24-.05.09-.01.19-.03.26-.06.33-.08.66-.17 1.01-.27.61-.19 1.25-.43 1.92-.71.63-.27 1.25-.58 1.83-.9.64-.35 1.22-.73 1.73-1.13.57-.45 1.07-.93 1.48-1.44.04-.03.07-.08.1-.11l.32-.44.2-.33c.02-.03.07-.12.14-.26.04-.09.07-.15.08-.18.02-.02.03-.04.04-.07.1-.27.16-.44.17-.48.01-.01.07-.19.07-.2 0-.01.11-.51.11-.51l.02-.16c0-.03 0-.12.01-.26.01-.06.01-.13.01-.2l.64-.24c.38-.13.69-.25.92-.35-.07.18-.12.36-.17.52-.06.2-.11.38-.15.53-.03.12-.05.22-.06.3-.01.07-.02.13-.02.19v.13c.01.06.02.12.04.19.03.08.08.15.15.2.09.07.19.11.3.11h.06c.13-.02.25-.08.33-.18.02-.03.04-.06.05-.1.01-.05.03-.1.06-.16.02-.04.05-.09.09-.13.08-.09.18-.2.27-.31.1-.1.2-.19.33-.29l.04-.04.05.13a1.703 1.703 0 00.29.49c.12.13.25.21.39.25.07.02.14.04.25.04h.04l.19-.04c.13-.04.29-.12.5-.24l.38-.25c.23-.17.47-.36.69-.57.04-.04.07-.07.11-.1.01.03.01.06.03.09.01.03.03.08.06.1.03.06.05.09.09.14.06.07.1.11.11.12.01.01.07.06.08.06.02.02.08.05.1.06.04.04.05.05.1.05.04.02.09.03.15.04a.88.88 0 00.41-.01c.1-.01.21-.05.34-.1.15-.06.31-.15.51-.26.25-.16.52-.37.81-.62.01.04.01.07.03.1.09.2.25.33.55.36.06 0 .12-.01.19-.03l.14-.05c.07-.03.14-.08.22-.14.16-.12.36-.3.6-.55l.04-.04c-.01.04-.03.07-.04.1-.08.29-.19.63-.32 1-.17.14-.34.28-.49.42-.43.39-.79.73-1.1 1.07-.38.44-.69.86-.93 1.26l-.09.17-.09.19-.11.28c-.03.07-.05.12-.06.16-.02.04-.03.09-.05.15l-.05.19-.03.2c-.01.03-.04.12-.04.15v.1c0 .23.07.44.21.61.15.2.36.32.6.34.06.01.11.02.17.02.15 0 .3-.03.45-.1.16-.07.31-.17.45-.31.02-.02.07-.08.14-.16l.09-.09c.01-.02.04-.05.06-.08.08-.1.15-.21.22-.34.13-.22.26-.45.38-.7.19-.39.39-.86.58-1.4.15-.38.31-.86.49-1.43.05-.17.11-.36.18-.57l.14-.11c.41-.32.81-.6 1.2-.84.1-.07.22-.13.33-.19-.01.09-.01.19 0 .39 0 .06.01.11.04.16 0 .05.02.1.04.14.01.03.03.08.06.1.01.02.06.1.07.12.07.08.12.13.2.2.02.02.08.05.1.06.04.04.05.06.1.06.04.02.09.03.15.04a.88.88 0 00.41-.01c.1-.01.21-.05.34-.1.15-.06.31-.15.51-.26.27-.17.55-.39.85-.66.18-.16.38-.35.58-.55.07.03.14.05.23.07l-.39.65c-.06.09-.11.17-.15.24-.2.34-.34.6-.43.76-.07.14-.14.29-.19.45-.03.08-.06.17-.08.26-.04.14-.05.26-.03.37.01.13.06.24.13.32.08.11.2.18.33.21.02.01.19.02.21.02h.03c.02 0 .03 0 .05-.01l.14-.03c.16-.04.32-.11.49-.21.24-.13.5-.32.78-.55.31-.27.63-.63.95-1.02.02.07.04.15.07.2.06.09.14.16.26.21.02.01.09.02.12.02l.08-.19-.06.2c.02.01.04.01.06.01.05 0 .1-.01.16-.02s.11-.03.13-.05c.05-.02.11-.05.14-.08.1-.05.21-.13.35-.24l.3-.24c.13-.11.27-.24.41-.36.01.02 0 .03.01.05.04.08.09.15.14.2.06.07.14.12.28.18.01 0 .14.02.14.02h.02a.85.85 0 00.34-.11c.05-.02.12-.07.22-.15.07-.06.16-.15.26-.26.11-.11.23-.25.36-.41l.03.18c.05.16.12.29.22.38.07.07.17.13.29.16.04.01.08.01.12.01l.13-.01c.06-.01.12-.03.22-.06.03-.02.07-.03.16-.07l.23-.16c.1-.07.2-.18.3-.28l-.15.5-.09.26c-.01.02-.02.09-.02.11-.05.17-.01.33.1.44.09.1.2.16.34.17h.03c.12 0 .23-.04.32-.11.02-.02.04-.05.06-.08.05-.06.12-.17.23-.32.07-.12.14-.22.2-.29.15-.21.31-.4.45-.56l.24-.24c.05-.05.1-.09.15-.12.02.06.03.13.06.21.05.19.09.33.14.46.04.06.08.12.11.14.08.09.17.15.22.16.06.04.14.06.22.06.06 0 .12-.01.17-.02a.67.67 0 00.18-.07c.07-.04.15-.09.25-.17l.16-.16c.13-.16.29-.38.47-.64.12-.18.25-.39.38-.63.06-.22.04-.38-.09-.51zm-5.31-.58c.04-.03.07-.05.1-.08-.01.03-.01.06-.02.09-.03 0-.06-.01-.08-.01zm-.6.59l-.1.13c-.1.15-.21.29-.31.41.13-.19.27-.37.41-.54zm-6.49.08c.03.07.08.11.12.17-.16.14-.33.29-.49.42-.3.23-.57.41-.8.55-.15.08-.28.15-.4.19-.07.02-.12.04-.22.05-.01 0-.02-.01-.03-.01-.02-.01-.05-.03-.07-.04a.992.992 0 01-.03-.15c.01-.05.01-.09.02-.16.02-.11.06-.24.12-.37l.01-.01c.21-.04.43-.12.64-.24.19-.1.37-.24.54-.39.15-.14.3-.29.45-.47.04-.05.08-.11.12-.16-.01.03-.01.06-.02.12-.01.02-.01.04-.01.06-.02.14 0 .29.05.44zm1.68-1.65c.04-.02.08-.05.15-.11.04-.03.08-.05.1-.06.04-.02.07-.02.08-.02l-.02-.02.19-.11-.21.22c0 .03-.02.07-.03.11-.07.12-.17.25-.28.37-.11.11-.24.22-.38.33-.06.05-.12.09-.19.14.05-.11.1-.21.17-.32.13-.19.29-.38.42-.53zm-6.65 1.32s-.41.42-.51.53c.05-.06.1-.13.17-.2s.14-.15.23-.24c.04-.04.07-.07.11-.1-.01 0-.01.01 0 .01zm-6.84-1.12c.28-.61.55-1.16.81-1.63.19-.35.37-.65.52-.88.03-.04.06-.09.08-.13-.01.16-.05.34-.12.54-.14.38-.38.8-.69 1.27-.17.28-.38.56-.6.83zm-4.75 3.9c-.03.06-.08.2-.15.4 0 0-.2.39-.2.4l-.16.28-.09.11-.11.17c-.02.02-.06.06-.12.15-.02.01-.03.02-.04.04-.36.46-.81.9-1.33 1.31-.47.36-1.01.72-1.61 1.05-.54.31-1.13.59-1.74.85-.63.27-1.25.5-1.82.68-.31.1-.62.18-.94.26l-.23.06c-.08.02-.16.03-.24.04l-.09.03-.33.04c-.19.02-.38.03-.56.03-.12 0-.24 0-.36-.01-.13-.01-.27-.03-.42-.07a.672.672 0 01-.31-.12c-.09-.06-.17-.15-.11-.37.03-.12.09-.23.16-.34.08-.13.17-.25.26-.35.18-.2.4-.41.67-.62.23-.18.49-.37.78-.56.48-.31 1.05-.63 1.7-.97.53-.27 1.12-.55 1.78-.84.6-.27 1.21-.53 1.81-.79 1.01-.4 2.24-.87 3.71-1.41l.21-.07-.01.08-.03.13-.04.19c-.01.03-.03.08-.04.14.01.04 0 .07 0 .08zm9.62 3.22l-.16.28-.05.05c-.03.04-.05.07-.04.07l-.1.12c-.04.05-.1.09-.17.13l-.13.02c-.02-.02-.04-.06-.06-.09.01-.02.03-.08.03-.1l.03-.28c.01-.02.02-.05.03-.08-.01.02-.02.05-.04.07.02-.02.03-.06.05-.09v-.01.01c.01-.02.01-.05.01-.06l.07-.18.07-.23.11-.24c.2-.36.48-.74.82-1.14.16-.19.34-.39.54-.59-.24.67-.48 1.24-.7 1.72-.09.22-.19.42-.31.62zM37.56 32.04l1.18-2.78h.64L37.7 32.9h-.5l-.38-2.75-1.33 2.75h-.5l-.4-3.64h.59l.23 2.71 1.31-2.71h.5l.34 2.78zM39.92 32.9h-.62l.64-3.64h.61l-.63 3.64zm.5-4.97c.1 0 .19.03.26.09.07.07.1.15.1.26 0 .11-.04.19-.1.26a.388.388 0 01-.52.02c-.07-.06-.1-.15-.1-.26 0-.11.04-.19.1-.26.07-.07.16-.11.26-.11zM42.49 28.38l-.16.88H43l-.09.48h-.67l-.39 2.27a.43.43 0 000 .16c.02.18.11.26.29.26.07 0 .17-.01.3-.03l-.05.51c-.15.04-.3.06-.45.06-.25 0-.43-.09-.55-.27-.12-.17-.17-.41-.14-.7l.38-2.26h-.65l.09-.48h.65l.16-.88h.61zM44.15 29.7c.32-.35.7-.52 1.12-.51.35 0 .6.12.77.35.17.23.23.55.19.97l-.4 2.39h-.63l.41-2.4c.01-.11.01-.21 0-.31-.04-.31-.23-.47-.56-.48-.38-.01-.7.19-.98.59l-.46 2.6H43l.91-5.17h.62l-.38 1.97z"/><path class="sub-text" d="M.72 27.6h2.71c.9 0 1.3.37 1.2 1.12l-.21 1.66c-.09.75-.59 1.12-1.48 1.12H1.83l-.23 1.88H0l.72-5.78zm2.14 2.56l.15-1.24c.02-.13-.05-.2-.2-.2h-.63l-.2 1.64h.62c.16 0 .24-.06.26-.2zM6.51 27.6h1.35c.9 0 1.3.37 1.2 1.12l-.44 3.55c-.09.75-.59 1.12-1.48 1.12H5.79c-.9 0-1.3-.37-1.2-1.12l.44-3.55c.09-.75.59-1.12 1.48-1.12zm.54 4.46l.39-3.14c.02-.13-.05-.2-.2-.2h-.38c-.15 0-.24.07-.25.2l-.39 3.14c-.02.13.05.2.2.2h.38c.15-.01.24-.07.25-.2zM9.75 27.6h2.7c.9 0 1.3.37 1.2 1.12l-.44 3.55c-.09.75-.59 1.12-1.48 1.12h-2.7l.72-5.79zm1.88 4.55l.41-3.32c.02-.13-.05-.2-.2-.2h-.61l-.46 3.71h.61c.15 0 .23-.06.25-.19zM17.95 29.76h-1.6l.12-.93c.02-.13-.05-.2-.2-.2h-.32c-.15 0-.24.07-.25.2l-.41 3.32c-.02.13.05.2.2.2h.32c.15 0 .24-.07.25-.2l.11-.89h1.6l-.13 1.01c-.09.75-.59 1.12-1.48 1.12h-1.29c-.9 0-1.3-.37-1.2-1.12l.44-3.55c.09-.74.59-1.12 1.48-1.12h1.29c.9 0 1.3.37 1.2 1.12l-.13 1.04zM21.01 33.38l-.08-.87h-1.41l-.3.87h-1.57l2.23-5.79h1.95l.79 5.79h-1.61zm-1.1-1.98h.91l-.19-2.08-.72 2.08zM25.28 32.06l.1-.82c.02-.13-.05-.2-.2-.2h-.88c-.45 0-.76-.1-.92-.29-.16-.19-.22-.48-.17-.84l.15-1.19c.09-.74.58-1.12 1.47-1.12h1.25c.89 0 1.29.37 1.2 1.12l-.09.69h-1.6l.06-.49c.02-.13-.05-.2-.2-.2h-.27c-.15 0-.24.07-.25.2l-.11.86c-.02.13.05.2.2.2h.86c.45 0 .76.09.93.28.17.19.23.46.19.82l-.15 1.19c-.09.75-.58 1.12-1.47 1.12h-1.24c-.9 0-1.3-.37-1.2-1.12l.09-.69h1.6l-.06.49c-.02.13.05.2.2.2h.27c.14-.02.22-.08.24-.21zM31.57 27.6l-.14 1.13H30.3l-.58 4.66h-1.6l.58-4.66h-1.12l.14-1.13h3.85z"/></g></svg>